<svg width="887" height="1577" viewBox="0 0 887 1577" fill="none" xmlns="http://www.w3.org/2000/svg">
<g clip-path="url(#clip0_2001_69)">
<rect width="887.821" height="216.335" transform="translate(-0.410645)" fill="#EDEDED"/>
<path d="M240.49 144.627C243.651 144.627 245.857 145.534 247.108 147.349C248.391 149.132 249.033 152.277 249.033 156.783C249.033 161.288 248.235 164.464 246.639 166.31C245.074 168.125 242.18 169.033 237.956 169.033C236.642 169.033 234.467 168.907 231.432 168.657L230.118 168.516V134.864H233.591V146.269C235.969 145.174 238.269 144.627 240.49 144.627ZM237.909 165.888C240.975 165.888 242.994 165.2 243.964 163.823C244.965 162.415 245.465 160.052 245.465 156.736C245.465 153.419 245.074 151.104 244.292 149.789C243.51 148.444 242.117 147.771 240.115 147.771C238.3 147.771 236.438 148.115 234.53 148.804L233.591 149.132V165.653C235.625 165.81 237.064 165.888 237.909 165.888Z" fill="#333333"/>
<path d="M223.173 152.183V164.198C223.267 165.356 224.174 166.044 225.895 166.264L225.754 169.033C223.282 169.033 221.421 168.407 220.169 167.155C217.353 168.407 214.537 169.033 211.721 169.033C209.562 169.033 207.919 168.423 206.793 167.202C205.666 165.982 205.103 164.23 205.103 161.946C205.103 159.661 205.682 157.987 206.84 156.924C207.997 155.828 209.812 155.156 212.284 154.905L219.653 154.201V152.183C219.653 150.587 219.309 149.445 218.62 148.757C217.932 148.069 216.993 147.724 215.804 147.724C213.301 147.724 210.704 147.881 208.013 148.194L206.558 148.335L206.417 145.659C209.859 144.971 212.91 144.627 215.569 144.627C218.229 144.627 220.153 145.237 221.342 146.457C222.563 147.677 223.173 149.586 223.173 152.183ZM208.717 161.758C208.717 164.636 209.906 166.076 212.284 166.076C214.412 166.076 216.508 165.716 218.573 164.996L219.653 164.621V156.877L212.706 157.534C211.298 157.659 210.281 158.066 209.656 158.754C209.03 159.442 208.717 160.444 208.717 161.758Z" fill="#333333"/>
<path d="M196.023 168.563V134.864H199.544V168.563H196.023Z" fill="#333333"/>
<path d="M185.378 168.563V163.213H189.227V168.563H185.378Z" fill="#333333"/>
<path fill-rule="evenodd" clip-rule="evenodd" d="M174.321 41.6039H41.1933V174.731H174.321V41.6039ZM175.925 40V176.335H39.5894V40H175.925Z" fill="#333333"/>
<path d="M165.546 167.649H156.508L148.305 157.481L152.457 152.761L165.546 167.649Z" fill="#333333"/>
<path d="M165.381 134.832L136.671 167.649H128.014L156.724 134.832H165.381Z" fill="#333333"/>
<path d="M145.283 144.45L141.142 149.165L128.542 134.832H137.205L145.283 144.45Z" fill="#333333"/>
<path d="M126.992 162.02V167.649H93.2031V134.832H126.935V140.462H100.31V148.625H122.129V153.959H100.31V162.02H126.992Z" fill="#333333"/>
<path d="M90.3739 134.832V167.649H83.2674L57.5455 143.814V167.649H50.4333V134.832H57.5455L83.2674 158.862V134.832H90.3739Z" fill="#333333"/>
<path d="M502.572 144.335H506.424L509.268 158.987H509.988L513.408 144.695H517.44L520.86 158.987H521.58L524.388 144.335H528.276L524.46 162.335H518.232L515.424 149.987L512.616 162.335H506.388L502.572 144.335ZM544.425 159.095L545.433 158.987L545.505 161.903C542.769 162.455 540.345 162.731 538.233 162.731C535.569 162.731 533.649 161.999 532.473 160.535C531.321 159.071 530.745 156.731 530.745 153.515C530.745 147.131 533.349 143.939 538.557 143.939C543.597 143.939 546.117 146.687 546.117 152.183L545.865 154.991H534.705C534.729 156.479 535.053 157.571 535.677 158.267C536.301 158.963 537.465 159.311 539.169 159.311C540.873 159.311 542.625 159.239 544.425 159.095ZM542.265 151.967C542.265 150.191 541.977 148.955 541.401 148.259C540.849 147.539 539.901 147.179 538.557 147.179C537.213 147.179 536.229 147.551 535.605 148.295C535.005 149.039 534.693 150.263 534.669 151.967H542.265ZM561.724 162.335H557.8V144.335H561.688V145.451C563.392 144.443 564.952 143.939 566.368 143.939C568.456 143.939 569.98 144.527 570.94 145.703C573.124 144.527 575.296 143.939 577.456 143.939C579.616 143.939 581.14 144.611 582.028 145.955C582.916 147.275 583.36 149.519 583.36 152.687V162.335H579.472V152.795C579.472 150.851 579.268 149.471 578.86 148.655C578.476 147.839 577.66 147.431 576.412 147.431C575.332 147.431 574.168 147.671 572.92 148.151L572.308 148.403C572.5 148.883 572.596 150.419 572.596 153.011V162.335H568.708V153.083C568.708 150.947 568.516 149.471 568.132 148.655C567.748 147.839 566.908 147.431 565.612 147.431C564.412 147.431 563.296 147.671 562.264 148.151L561.724 148.367V162.335ZM601.284 149.879V158.087C601.308 158.615 601.44 159.011 601.68 159.275C601.944 159.515 602.34 159.671 602.868 159.743L602.76 162.731C600.696 162.731 599.1 162.287 597.972 161.399C596.052 162.287 594.12 162.731 592.176 162.731C588.6 162.731 586.812 160.823 586.812 157.007C586.812 155.183 587.292 153.863 588.252 153.047C589.236 152.231 590.736 151.739 592.752 151.571L597.396 151.175V149.879C597.396 148.919 597.18 148.247 596.748 147.863C596.34 147.479 595.728 147.287 594.912 147.287C593.376 147.287 591.456 147.383 589.152 147.575L588 147.647L587.856 144.875C590.472 144.251 592.872 143.939 595.056 143.939C597.264 143.939 598.848 144.419 599.808 145.379C600.792 146.315 601.284 147.815 601.284 149.879ZM593.22 154.343C591.564 154.487 590.736 155.387 590.736 157.043C590.736 158.699 591.468 159.527 592.932 159.527C594.132 159.527 595.404 159.335 596.748 158.951L597.396 158.735V153.947L593.22 154.343ZM610.134 162.335H606.21V136.847H610.134V151.571L612.366 151.355L616.614 144.335H621.006L615.822 152.759L621.294 162.335H616.866L612.474 154.739L610.134 154.991V162.335ZM636.605 159.095L637.613 158.987L637.685 161.903C634.949 162.455 632.525 162.731 630.413 162.731C627.749 162.731 625.829 161.999 624.653 160.535C623.501 159.071 622.925 156.731 622.925 153.515C622.925 147.131 625.529 143.939 630.737 143.939C635.777 143.939 638.297 146.687 638.297 152.183L638.045 154.991H626.885C626.909 156.479 627.233 157.571 627.857 158.267C628.481 158.963 629.645 159.311 631.349 159.311C633.053 159.311 634.805 159.239 636.605 159.095ZM634.445 151.967C634.445 150.191 634.157 148.955 633.581 148.259C633.029 147.539 632.081 147.179 630.737 147.179C629.393 147.179 628.409 147.551 627.785 148.295C627.185 149.039 626.873 150.263 626.849 151.967H634.445ZM659.664 147.683H654.696V155.603C654.696 157.067 654.804 158.039 655.02 158.519C655.236 158.999 655.788 159.239 656.676 159.239L659.628 159.131L659.808 162.263C658.2 162.575 656.976 162.731 656.136 162.731C654.096 162.731 652.692 162.263 651.924 161.327C651.18 160.391 650.808 158.627 650.808 156.035V147.683H648.504V144.335H650.808V139.115H654.696V144.335H659.664V147.683ZM675.698 159.095L676.706 158.987L676.778 161.903C674.042 162.455 671.618 162.731 669.506 162.731C666.842 162.731 664.922 161.999 663.746 160.535C662.594 159.071 662.018 156.731 662.018 153.515C662.018 147.131 664.622 143.939 669.83 143.939C674.87 143.939 677.39 146.687 677.39 152.183L677.138 154.991H665.978C666.002 156.479 666.326 157.571 666.95 158.267C667.574 158.963 668.738 159.311 670.442 159.311C672.146 159.311 673.898 159.239 675.698 159.095ZM673.538 151.967C673.538 150.191 673.25 148.955 672.674 148.259C672.122 147.539 671.174 147.179 669.83 147.179C668.486 147.179 667.502 147.551 666.878 148.295C666.278 149.039 665.966 150.263 665.942 151.967H673.538ZM687.896 143.939C689.168 143.939 690.668 144.107 692.396 144.443L693.296 144.623L693.152 147.719C691.256 147.527 689.852 147.431 688.94 147.431C687.116 147.431 685.892 147.839 685.268 148.655C684.644 149.471 684.332 151.007 684.332 153.263C684.332 155.519 684.632 157.079 685.232 157.943C685.832 158.807 687.08 159.239 688.976 159.239L693.188 158.951L693.296 162.083C690.872 162.515 689.048 162.731 687.824 162.731C685.088 162.731 683.156 161.999 682.028 160.535C680.924 159.047 680.372 156.623 680.372 153.263C680.372 149.903 680.96 147.515 682.136 146.099C683.312 144.659 685.232 143.939 687.896 143.939ZM701.013 162.335H697.089V136.847H701.013V145.271C702.789 144.383 704.433 143.939 705.945 143.939C708.345 143.939 709.977 144.623 710.841 145.991C711.729 147.335 712.173 149.567 712.173 152.687V162.335H708.249V152.795C708.249 150.851 708.045 149.471 707.637 148.655C707.229 147.839 706.365 147.431 705.045 147.431C703.893 147.431 702.741 147.623 701.589 148.007L701.013 148.223V162.335ZM737.144 148.043C734.312 147.659 732.26 147.467 730.988 147.467C729.716 147.467 728.828 147.623 728.324 147.935C727.844 148.223 727.604 148.691 727.604 149.339C727.604 149.987 727.868 150.443 728.396 150.707C728.948 150.971 730.22 151.283 732.212 151.643C734.228 151.979 735.656 152.519 736.496 153.263C737.336 154.007 737.756 155.327 737.756 157.223C737.756 159.119 737.144 160.511 735.92 161.399C734.72 162.287 732.956 162.731 730.628 162.731C729.164 162.731 727.316 162.527 725.084 162.119L723.968 161.939L724.112 158.663C726.992 159.047 729.068 159.239 730.34 159.239C731.612 159.239 732.512 159.083 733.04 158.771C733.592 158.459 733.868 157.943 733.868 157.223C733.868 156.503 733.604 156.011 733.076 155.747C732.572 155.459 731.336 155.159 729.368 154.847C727.424 154.511 725.996 153.995 725.084 153.299C724.172 152.603 723.716 151.331 723.716 149.483C723.716 147.635 724.34 146.255 725.588 145.343C726.86 144.431 728.48 143.975 730.448 143.975C731.984 143.975 733.868 144.167 736.1 144.551L737.216 144.767L737.144 148.043ZM741.527 162.335V144.335H745.451V162.335H741.527ZM741.527 141.275V137.135H745.451V141.275H741.527ZM754.134 162.335H750.21V144.335H754.098V145.451C755.802 144.443 757.362 143.939 758.778 143.939C760.866 143.939 762.39 144.527 763.35 145.703C765.534 144.527 767.706 143.939 769.866 143.939C772.026 143.939 773.55 144.611 774.438 145.955C775.326 147.275 775.77 149.519 775.77 152.687V162.335H771.882V152.795C771.882 150.851 771.678 149.471 771.27 148.655C770.886 147.839 770.07 147.431 768.822 147.431C767.742 147.431 766.578 147.671 765.33 148.151L764.718 148.403C764.91 148.883 765.006 150.419 765.006 153.011V162.335H761.118V153.083C761.118 150.947 760.926 149.471 760.542 148.655C760.158 147.839 759.318 147.431 758.022 147.431C756.822 147.431 755.706 147.671 754.674 148.151L754.134 148.367V162.335ZM780.375 170.075V144.335H784.263V145.451C785.919 144.443 787.467 143.939 788.907 143.939C791.283 143.939 793.023 144.671 794.127 146.135C795.231 147.575 795.783 150.011 795.783 153.443C795.783 156.851 795.147 159.251 793.875 160.643C792.627 162.035 790.575 162.731 787.719 162.731C786.735 162.731 785.595 162.623 784.299 162.407V170.075H780.375ZM788.223 147.431C787.095 147.431 785.967 147.683 784.839 148.187L784.299 148.439V159.059C785.259 159.251 786.315 159.347 787.467 159.347C789.099 159.347 790.227 158.879 790.851 157.943C791.475 157.007 791.787 155.411 791.787 153.155C791.787 149.339 790.599 147.431 788.223 147.431ZM799.926 162.335V136.847H803.85V162.335H799.926ZM821.632 159.095L822.64 158.987L822.712 161.903C819.976 162.455 817.552 162.731 815.44 162.731C812.776 162.731 810.856 161.999 809.68 160.535C808.528 159.071 807.952 156.731 807.952 153.515C807.952 147.131 810.556 143.939 815.764 143.939C820.804 143.939 823.324 146.687 823.324 152.183L823.072 154.991H811.912C811.936 156.479 812.26 157.571 812.884 158.267C813.508 158.963 814.672 159.311 816.376 159.311C818.08 159.311 819.832 159.239 821.632 159.095ZM819.472 151.967C819.472 150.191 819.184 148.955 818.608 148.259C818.056 147.539 817.108 147.179 815.764 147.179C814.42 147.179 813.436 147.551 812.812 148.295C812.212 149.039 811.9 150.263 811.876 151.967H819.472ZM828.285 165.251H843.693V168.599H828.285V165.251Z" fill="#393939"/>
<rect width="887" height="98" transform="translate(0 1478.89)" fill="#EDEDED"/>
<path d="M271.661 1523.39H275.513L278.357 1538.04H279.077L282.497 1523.75H286.529L289.949 1538.04H290.669L293.477 1523.39H297.365L293.549 1541.39H287.321L284.513 1529.04L281.705 1541.39H275.477L271.661 1523.39ZM313.514 1538.15L314.522 1538.04L314.594 1540.96C311.858 1541.51 309.434 1541.78 307.322 1541.78C304.658 1541.78 302.738 1541.05 301.562 1539.59C300.41 1538.12 299.834 1535.78 299.834 1532.57C299.834 1526.18 302.438 1522.99 307.646 1522.99C312.686 1522.99 315.206 1525.74 315.206 1531.24L314.954 1534.04H303.794C303.818 1535.53 304.142 1536.62 304.766 1537.32C305.39 1538.02 306.554 1538.36 308.258 1538.36C309.962 1538.36 311.714 1538.29 313.514 1538.15ZM311.354 1531.02C311.354 1529.24 311.066 1528.01 310.49 1527.31C309.938 1526.59 308.99 1526.23 307.646 1526.23C306.302 1526.23 305.318 1526.6 304.694 1527.35C304.094 1528.09 303.782 1529.32 303.758 1531.02H311.354ZM330.814 1541.39H326.89V1523.39H330.778V1524.5C332.482 1523.5 334.042 1522.99 335.458 1522.99C337.546 1522.99 339.07 1523.58 340.03 1524.76C342.214 1523.58 344.386 1522.99 346.546 1522.99C348.706 1522.99 350.23 1523.66 351.118 1525.01C352.006 1526.33 352.45 1528.57 352.45 1531.74V1541.39H348.562V1531.85C348.562 1529.9 348.358 1528.52 347.95 1527.71C347.566 1526.89 346.75 1526.48 345.502 1526.48C344.422 1526.48 343.258 1526.72 342.01 1527.2L341.398 1527.46C341.59 1527.94 341.686 1529.47 341.686 1532.06V1541.39H337.798V1532.14C337.798 1530 337.606 1528.52 337.222 1527.71C336.838 1526.89 335.998 1526.48 334.702 1526.48C333.502 1526.48 332.386 1526.72 331.354 1527.2L330.814 1527.42V1541.39ZM370.374 1528.93V1537.14C370.398 1537.67 370.53 1538.06 370.77 1538.33C371.034 1538.57 371.43 1538.72 371.958 1538.8L371.85 1541.78C369.786 1541.78 368.19 1541.34 367.062 1540.45C365.142 1541.34 363.21 1541.78 361.266 1541.78C357.69 1541.78 355.902 1539.88 355.902 1536.06C355.902 1534.24 356.382 1532.92 357.342 1532.1C358.326 1531.28 359.826 1530.79 361.842 1530.62L366.486 1530.23V1528.93C366.486 1527.97 366.27 1527.3 365.838 1526.92C365.43 1526.53 364.818 1526.34 364.002 1526.34C362.466 1526.34 360.546 1526.44 358.242 1526.63L357.09 1526.7L356.946 1523.93C359.562 1523.3 361.962 1522.99 364.146 1522.99C366.354 1522.99 367.938 1523.47 368.898 1524.43C369.882 1525.37 370.374 1526.87 370.374 1528.93ZM362.31 1533.4C360.654 1533.54 359.826 1534.44 359.826 1536.1C359.826 1537.75 360.558 1538.58 362.022 1538.58C363.222 1538.58 364.494 1538.39 365.838 1538L366.486 1537.79V1533L362.31 1533.4ZM379.224 1541.39H375.3V1515.9H379.224V1530.62L381.456 1530.41L385.704 1523.39H390.096L384.912 1531.81L390.384 1541.39H385.956L381.564 1533.79L379.224 1534.04V1541.39ZM405.694 1538.15L406.702 1538.04L406.774 1540.96C404.038 1541.51 401.614 1541.78 399.502 1541.78C396.838 1541.78 394.918 1541.05 393.742 1539.59C392.59 1538.12 392.014 1535.78 392.014 1532.57C392.014 1526.18 394.618 1522.99 399.826 1522.99C404.866 1522.99 407.386 1525.74 407.386 1531.24L407.134 1534.04H395.974C395.998 1535.53 396.322 1536.62 396.946 1537.32C397.57 1538.02 398.734 1538.36 400.438 1538.36C402.142 1538.36 403.894 1538.29 405.694 1538.15ZM403.534 1531.02C403.534 1529.24 403.246 1528.01 402.67 1527.31C402.118 1526.59 401.17 1526.23 399.826 1526.23C398.482 1526.23 397.498 1526.6 396.874 1527.35C396.274 1528.09 395.962 1529.32 395.938 1531.02H403.534ZM428.753 1526.74H423.785V1534.66C423.785 1536.12 423.893 1537.09 424.109 1537.57C424.325 1538.05 424.877 1538.29 425.765 1538.29L428.717 1538.18L428.897 1541.32C427.289 1541.63 426.065 1541.78 425.225 1541.78C423.185 1541.78 421.781 1541.32 421.013 1540.38C420.269 1539.44 419.897 1537.68 419.897 1535.09V1526.74H417.593V1523.39H419.897V1518.17H423.785V1523.39H428.753V1526.74ZM444.788 1538.15L445.796 1538.04L445.868 1540.96C443.132 1541.51 440.708 1541.78 438.596 1541.78C435.932 1541.78 434.012 1541.05 432.836 1539.59C431.684 1538.12 431.108 1535.78 431.108 1532.57C431.108 1526.18 433.712 1522.99 438.92 1522.99C443.96 1522.99 446.48 1525.74 446.48 1531.24L446.228 1534.04H435.068C435.092 1535.53 435.416 1536.62 436.04 1537.32C436.664 1538.02 437.828 1538.36 439.532 1538.36C441.236 1538.36 442.988 1538.29 444.788 1538.15ZM442.628 1531.02C442.628 1529.24 442.34 1528.01 441.764 1527.31C441.212 1526.59 440.264 1526.23 438.92 1526.23C437.576 1526.23 436.592 1526.6 435.968 1527.35C435.368 1528.09 435.056 1529.32 435.032 1531.02H442.628ZM456.985 1522.99C458.257 1522.99 459.757 1523.16 461.485 1523.5L462.385 1523.68L462.241 1526.77C460.345 1526.58 458.941 1526.48 458.029 1526.48C456.205 1526.48 454.981 1526.89 454.357 1527.71C453.733 1528.52 453.421 1530.06 453.421 1532.32C453.421 1534.57 453.721 1536.13 454.321 1537C454.921 1537.86 456.169 1538.29 458.065 1538.29L462.277 1538L462.385 1541.14C459.961 1541.57 458.137 1541.78 456.913 1541.78C454.177 1541.78 452.245 1541.05 451.117 1539.59C450.013 1538.1 449.461 1535.68 449.461 1532.32C449.461 1528.96 450.049 1526.57 451.225 1525.15C452.401 1523.71 454.321 1522.99 456.985 1522.99ZM470.103 1541.39H466.179V1515.9H470.103V1524.32C471.879 1523.44 473.523 1522.99 475.035 1522.99C477.435 1522.99 479.067 1523.68 479.931 1525.04C480.819 1526.39 481.263 1528.62 481.263 1531.74V1541.39H477.339V1531.85C477.339 1529.9 477.135 1528.52 476.727 1527.71C476.319 1526.89 475.455 1526.48 474.135 1526.48C472.983 1526.48 471.831 1526.68 470.679 1527.06L470.103 1527.28V1541.39ZM506.233 1527.1C503.401 1526.71 501.349 1526.52 500.077 1526.52C498.805 1526.52 497.917 1526.68 497.413 1526.99C496.933 1527.28 496.693 1527.74 496.693 1528.39C496.693 1529.04 496.957 1529.5 497.485 1529.76C498.037 1530.02 499.309 1530.34 501.301 1530.7C503.317 1531.03 504.745 1531.57 505.585 1532.32C506.425 1533.06 506.845 1534.38 506.845 1536.28C506.845 1538.17 506.233 1539.56 505.009 1540.45C503.809 1541.34 502.045 1541.78 499.717 1541.78C498.253 1541.78 496.405 1541.58 494.173 1541.17L493.057 1540.99L493.201 1537.72C496.081 1538.1 498.157 1538.29 499.429 1538.29C500.701 1538.29 501.601 1538.14 502.129 1537.82C502.681 1537.51 502.957 1537 502.957 1536.28C502.957 1535.56 502.693 1535.06 502.165 1534.8C501.661 1534.51 500.425 1534.21 498.457 1533.9C496.513 1533.56 495.085 1533.05 494.173 1532.35C493.261 1531.66 492.805 1530.38 492.805 1528.54C492.805 1526.69 493.429 1525.31 494.677 1524.4C495.949 1523.48 497.569 1523.03 499.537 1523.03C501.073 1523.03 502.957 1523.22 505.189 1523.6L506.305 1523.82L506.233 1527.1ZM510.616 1541.39V1523.39H514.54V1541.39H510.616ZM510.616 1520.33V1516.19H514.54V1520.33H510.616ZM523.224 1541.39H519.3V1523.39H523.188V1524.5C524.892 1523.5 526.452 1522.99 527.868 1522.99C529.956 1522.99 531.48 1523.58 532.44 1524.76C534.624 1523.58 536.796 1522.99 538.956 1522.99C541.116 1522.99 542.64 1523.66 543.528 1525.01C544.416 1526.33 544.86 1528.57 544.86 1531.74V1541.39H540.972V1531.85C540.972 1529.9 540.768 1528.52 540.36 1527.71C539.976 1526.89 539.16 1526.48 537.912 1526.48C536.832 1526.48 535.668 1526.72 534.42 1527.2L533.808 1527.46C534 1527.94 534.096 1529.47 534.096 1532.06V1541.39H530.208V1532.14C530.208 1530 530.016 1528.52 529.632 1527.71C529.248 1526.89 528.408 1526.48 527.112 1526.48C525.912 1526.48 524.796 1526.72 523.764 1527.2L523.224 1527.42V1541.39ZM549.464 1549.13V1523.39H553.352V1524.5C555.008 1523.5 556.556 1522.99 557.996 1522.99C560.372 1522.99 562.112 1523.72 563.216 1525.19C564.32 1526.63 564.872 1529.06 564.872 1532.5C564.872 1535.9 564.236 1538.3 562.964 1539.7C561.716 1541.09 559.664 1541.78 556.808 1541.78C555.824 1541.78 554.684 1541.68 553.388 1541.46V1549.13H549.464ZM557.312 1526.48C556.184 1526.48 555.056 1526.74 553.928 1527.24L553.388 1527.49V1538.11C554.348 1538.3 555.404 1538.4 556.556 1538.4C558.188 1538.4 559.316 1537.93 559.94 1537C560.564 1536.06 560.876 1534.46 560.876 1532.21C560.876 1528.39 559.688 1526.48 557.312 1526.48ZM569.016 1541.39V1515.9H572.94V1541.39H569.016ZM590.721 1538.15L591.729 1538.04L591.801 1540.96C589.065 1541.51 586.641 1541.78 584.529 1541.78C581.865 1541.78 579.945 1541.05 578.769 1539.59C577.617 1538.12 577.041 1535.78 577.041 1532.57C577.041 1526.18 579.645 1522.99 584.853 1522.99C589.893 1522.99 592.413 1525.74 592.413 1531.24L592.161 1534.04H581.001C581.025 1535.53 581.349 1536.62 581.973 1537.32C582.597 1538.02 583.761 1538.36 585.465 1538.36C587.169 1538.36 588.921 1538.29 590.721 1538.15ZM588.561 1531.02C588.561 1529.24 588.273 1528.01 587.697 1527.31C587.145 1526.59 586.197 1526.23 584.853 1526.23C583.509 1526.23 582.525 1526.6 581.901 1527.35C581.301 1528.09 580.989 1529.32 580.965 1531.02H588.561ZM597.375 1544.3H612.783V1547.65H597.375V1544.3Z" fill="#393939"/>
</g>
<rect x="0.5" y="0.5" width="886" height="1575.89" rx="7.5" stroke="black"/>
<defs>
<clipPath id="clip0_2001_69">
<rect width="887" height="1576.89" rx="8" fill="white"/>
</clipPath>
</defs>
</svg>
